<svg version="1.2" xmlns="http://www.w3.org/2000/svg" viewBox="0 0 1146 310" width="1146" height="310"><style>.a{fill:#ff003c}.b{fill:#00baff}.c{fill:#ffd800}</style><path class="a" d="m3.9 129.6l0.6-96.9-0.6-16.8q0-10.8 2.2-13.3 5.3-0.2 20-0.2 14.8 0 25.6 0.2l27.6 0.3q7.6-0.5 22.1-0.5 14.5 0 18.4 3.9-0.9 47.8-0.9 113.5l6.8 1.2q3-7.6 10.6-22.9 7.8-15.3 9-17.8l2.2-4.7q0.7-1.8 7-15.1 6.5-13.5 13.1-30.1 6.7-16.9 14.3-26.5 13.7-0.2 33.3-0.2 19.8 0 46 0.8 26.2 0.6 39.4 0.6-55.8 100.8-79.3 139.6l4.5 7.3q8 9.9 35 56.9 27 47 39.2 66.8l4.7 7.6q8.6 14.3 8.6 16.3 0 1.9-1.2 3.5h-1.2q-10.9-0.4-17.8-0.4-6.6 0-17.6 0.4h-87.9q-30.2-56.4-62.7-122.4-1.5 15.7-4.7 74v2.6l0.4 44.4q-2.3 3.6-20.5 3.6l-4.1-0.2h-10.6l-55.4 0.4h-18q-5.5 0-7.9-4.2l-0.6-0.5v-29.8l0.4-30.7z"/><path class="b" d="m593.3 180.5q-0.4 2-0.4 2.4v1.6q-0.6 32.3-14.9 58.1h0.2q-20 30.6-55.8 47-35.6 16.4-70.3 16.4-34.6 0-57.5-6.6-22.8-6.9-42.1-19.8-19.4-12.9-28.8-24.9-22.3-28.1-22.3-79.6 0-1.8 0.5-3v-3.1q-0.5-0.8-0.5-1.6l0.3-2.1h-0.2q3.8-34.3 14.5-45.1 0-2.1 2.8-4.9v0.2l2.9-4.7q23.1-29.5 52.9-40.5l6.8-2.5q13-6.3 36.3-9.4l6.2-0.6q1.4-0.2 5.5-0.4 4.3-0.2 6.1-0.8l8.4 0.2q0.6-0.2 1.4-0.2 0.7 0 1.7 0.2l-0.2-0.2q1.2 0.6 3.6 0.6 0.7-0.8 2.7-0.8 42.5 0 72.2 17.4l4 1.8q64 30.7 64 104.9zm-121.8 1.2q-0.8-38.9-11.2-52.7-4.3-5.6-10.5-5.6-6.1 0-10.8 7.2-4.7 7.1-7.6 22.3-2.8 15.3-2.8 27.2 0 11.8 1 20.4 1.2 8.4 3.3 18 2.2 9.4 6.7 15.9 4.5 6.3 10.2 6.3 21.7 0 21.7-59zm515.7-116.9v18.8l-0.4 124.4q0 19.9 14.3 19.9 12 0 12-21.1v-141.8l64.4-0.2h63.8l0.2 234h-109.6l-9.2-31.7q-25.1 38.9-68.7 38.9-37.6 0-63.3-21.5l0.2-1.4q-3.3-0.9-8.2-7-4.9-6.3-7.5-10.8-12.7-23.1-12.7-67.9l0.2-6.3v-126.1h62.3z"/><path class="c" d="m852.9 12.5l-0.2 18.3q0 26.8-0.8 47.7-22.9 2-62.6 2l-45.2 0.2v5.7l-0.4 17.2q0 6.8 0.6 13.3 48.9-4.1 72.4-4.1 23.7 0 29 3.5v65.6q0 6.5-2.6 8.6-2.5 2.2-7.8 2.2h-2.5l-10.6-0.4q-35.1 1.9-77.8 2.9l1.4 78-0.2 6.6v18.4q0 5.9-3.5 6.3l-112 1q-0.4-1.2-2.9-5.3-0.8-12.9-0.8-22l1.2-272.3q0-2.6 26.6-2.6l4.9 0.2h13.3l94.6-0.9 67.1 0.7h6.7l2.9-0.2q5.5 0 7.3 2.6 1.9 2.3 1.9 6.8z"/></svg>