<svg version="1.2" xmlns="http://www.w3.org/2000/svg" viewBox="0 0 1194 292" width="1194" height="292">
	<title>FiyaskoText</title>
	<style>
		.s0 { fill: #ff003c } 
		.s1 { fill: #00baff } 
		.s2 { fill: #ffd800 } 
	</style>
	<path id="FİYASKO" class="s0" aria-label="FİYASKO"  d="m15.6 62.7h139.6q-1 14.3-1.7 28.2-0.8 13.9-2 28.1l-64.2 3.4v19h55.7l-3 47-53 1.5 0.3 89.6-76.6 1.5zm-8.1 0h139.5q-0.9 14.2-1.6 28.2-0.8 13.9-2 28.1l-64.2 3.3v19.1h55.7l-3 46.9-53 1.5 0.3 89.7-76.6 1.5zm165.1 9.4l80.5-4.3-16.7 206.2-63.8 3.3zm70.8-40.4q0 6.2-2.4 11.5-2.3 5.3-6.4 9.4-4.1 3.9-9.5 6.2-5.5 2.3-11.7 2.3-6.6 0-12.2-2.3-5.6-2.3-9.7-6.2-4.1-4.1-6.4-9.4-2.2-5.3-2.2-11.5 0-6.1 2.2-11.5 2.3-5.5 6.2-9.4 4.1-4.1 9.6-6.4 5.4-2.4 11.6-2.4 6.5 0 12.1 2.4 5.8 2.3 9.9 6.4 4.2 3.9 6.5 9.4 2.4 5.4 2.4 11.5zm-79 40.4l80.5-4.2-16.6 206.1-63.9 3.4zm70.8-40.5q0 6.3-2.4 11.6-2.3 5.3-6.3 9.3-4.1 4-9.6 6.2-5.4 2.3-11.6 2.3-6.7 0-12.3-2.3-5.6-2.2-9.7-6.2-4.1-4-6.3-9.3-2.3-5.3-2.3-11.6 0-6 2.3-11.5 2.2-5.4 6.2-9.3 4-4.1 9.5-6.4 5.4-2.4 11.7-2.4 6.5 0 12.1 2.4 5.7 2.3 9.8 6.4 4.2 3.9 6.5 9.3 2.4 5.5 2.4 11.5z"/>
	<path id="FİYASKO" class="s1" aria-label="FİYASKO"  d="m393.6 70.9l72.7 5.1-83.3 116.3-3.9 94.8h-71.7l1.8-94.2-43.3-112.3 77.2-9.7 12.1 65.4zm-8.2 0l72.7 5.1-83.3 116.3-3.9 94.7h-71.8l1.9-94.1-43.3-112.3 77.2-9.7 12.1 65.4zm192.9-6.7l59 203.8-75.1 9.7-9.1-34.3h-34.5l-7.5 34.3-77.2-7.6 60.2-201.6zm-53.3 132.9h22.7l-11.5-52.7zm45.1-132.9l59.1 203.7-75.1 9.7-9.1-34.2h-34.5l-7.6 34.2-77.2-7.6 60.3-201.6zm-53.3 132.9h22.7l-11.5-52.7zm287 3.4q0 20.7-7.2 36.3-7.2 15.4-19.7 25.7-12.4 10.3-29.2 15.5-16.7 5.1-35.9 5.1-7.4 0-16.4-1.9-8.7-2-17.8-4.9-9.1-3-17.6-6.3-8.3-3.5-14.8-6.6l6.7-62.3q12.8 7.7 28.4 11.8 15.8 3.9 30.9 3.9 2.9 0 7-0.1 4-0.3 7.7-1.4 3.8-1.2 6.3-3.5 2.6-2.2 2.6-6.5 0-2.9-1.8-4.8-1.8-2.1-4.7-3.4-2.9-1.3-6.5-1.9-3.6-0.8-7.1-1.1-3.5-0.3-6.5-0.3-3.1 0-4.9 0-13 0-23.7-4.5-10.6-4.6-18.4-12.6-7.5-8.2-11.8-19.2-4.2-11.2-4.2-24.2 0-17.9 7.1-32 7.3-14.2 19.2-24 12.1-10 27.7-15.3 15.6-5.3 32.3-5.3 7.4 0 15.3 0.6 7.8 0.4 15.6 1.8 7.8 1.4 15.2 3.5 7.5 2.1 14.1 5.3l-5.7 61.4q-10.3-3.4-21.7-5.7-11.2-2.4-21.9-2.4-2 0-5.2 0.1-3 0-6.5 0.5-3.3 0.3-6.8 1-3.5 0.8-6.2 2.1-2.7 1.3-4.4 3.4-1.7 2.1-1.5 5 0.1 3.3 2.4 5.4 2.4 2 6.1 3.2 3.8 1.1 8.1 1.5 4.6 0.5 9 0.6 4.4 0 8.2 0 3.7-0.1 6.2 0.2 12.1 0.7 21.8 5.1 9.6 4.4 16.3 11.7 6.8 7.2 10.3 17.4 3.6 10 3.6 22.1zm-8.1 0q0 20.7-7.3 36.3-7.1 15.4-19.7 25.7-12.4 10.3-29.2 15.5-16.7 5.1-35.9 5.1-7.4 0-16.3-1.9-8.8-2-17.9-4.9-9.1-3-17.5-6.3-8.4-3.5-14.9-6.6l6.7-62.3q12.8 7.7 28.4 11.8 15.8 3.9 30.9 3.9 2.9 0 7-0.1 4.1-0.3 7.7-1.4 3.8-1.2 6.4-3.5 2.5-2.2 2.5-6.5 0-2.9-1.8-4.8-1.8-2.1-4.7-3.4-2.9-1.3-6.5-1.9-3.6-0.8-7.1-1.1-3.5-0.3-6.5-0.3-3 0-4.9 0-13 0-23.7-4.5-10.6-4.6-18.3-12.6-7.6-8.2-11.8-19.2-4.3-11.2-4.3-24.2 0-17.9 7.1-32 7.3-14.2 19.3-24 12.1-10 27.7-15.3 15.5-5.3 32.2-5.3 7.4 0 15.3 0.6 7.9 0.4 15.6 1.8 7.8 1.4 15.3 3.5 7.4 2.1 14 5.3l-5.7 61.4q-10.3-3.4-21.7-5.7-11.2-2.4-21.9-2.4-2 0-5.1 0.1-3.1 0-6.6 0.5-3.3 0.3-6.8 1-3.5 0.8-6.2 2.1-2.7 1.3-4.4 3.4-1.6 2.1-1.5 5 0.2 3.3 2.4 5.4 2.5 2 6.1 3.2 3.8 1.1 8.2 1.5 4.5 0.5 8.9 0.6 4.4 0 8.2 0 3.8-0.1 6.2 0.2 12.1 0.7 21.8 5.1 9.7 4.4 16.3 11.7 6.8 7.2 10.3 17.4 3.7 10 3.7 22.1z"/>
	<path id="FİYASKO" class="s2" aria-label="FİYASKO"  d="m937.5 58.2l76.3 6-73 100.9 61.5 107.1-70.3 12.4-46-65.4-2.4 68.5-63 2.4 4.9-231.9 70.5 3.9-5.4 68.4zm-8.2 0l76.3 6.1-73 100.8 61.5 107.2-70.3 12.4-46-65.4-2.4 68.4-63 2.4 4.9-231.9 70.5 4-5.4 68.4zm262.3 115.9q0 13.8-3.1 26.7-3.2 12.7-9.3 23.9-5.9 11.2-14.5 20.6-8.5 9.2-19.2 15.9-10.6 6.6-23.2 10.4-12.6 3.7-26.6 3.7-13.7 0-26.1-3.5-12.2-3.5-23-9.7-10.7-6.4-19.5-15.2-8.6-8.9-14.8-19.6-6.1-10.9-9.6-23.3-3.3-12.5-3.3-25.9 0-13.2 3.2-25.8 3.2-12.7 9.1-23.9 6-11.2 14.5-20.6 8.5-9.3 18.9-16.2 10.6-6.8 22.9-10.5 12.2-3.8 25.8-3.8 22 0 40 6.8 18.2 6.8 30.9 19.5 12.9 12.6 19.8 30.6 7.1 17.8 7.1 39.9zm-67.2 4q0-6.5-1.9-12.6-1.9-6.2-5.5-10.9-3.6-4.8-9.1-7.7-5.3-3-12.2-3-7.1 0-12.7 2.5-5.6 2.6-9.7 7.2-4 4.3-6.1 10.4-2.1 5.9-2.1 12.6 0 6.3 1.8 12.7 1.8 6.3 5.5 11.5 3.6 5.1 8.9 8.3 5.4 3.2 12.5 3.2 7.2 0 12.8-2.7 5.7-2.9 9.7-7.6 3.9-4.9 6-11.1 2.1-6.2 2.1-12.8zm59.1-4q0 13.8-3.2 26.7-3.2 12.7-9.3 23.9-5.9 11.2-14.5 20.6-8.5 9.2-19.2 15.9-10.6 6.6-23.2 10.4-12.5 3.7-26.6 3.7-13.6 0-26-3.5-12.3-3.5-23.1-9.7-10.7-6.4-19.5-15.2-8.6-8.9-14.8-19.6-6.1-10.9-9.5-23.3-3.4-12.5-3.4-25.9 0-13.2 3.2-25.8 3.2-12.7 9.1-23.9 6-11.2 14.5-20.6 8.5-9.3 18.9-16.2 10.6-6.8 22.9-10.5 12.3-3.8 25.9-3.8 21.9 0 39.9 6.8 18.2 6.8 30.9 19.5 12.9 12.6 19.8 30.6 7.2 17.8 7.2 39.9zm-67.2 4q0-6.5-2-12.6-1.8-6.2-5.5-10.9-3.6-4.8-9-7.7-5.3-3-12.3-3-7.1 0-12.7 2.5-5.6 2.6-9.7 7.2-3.9 4.3-6.1 10.4-2.1 5.9-2.1 12.6 0 6.3 1.8 12.7 1.8 6.3 5.5 11.5 3.6 5.1 8.9 8.3 5.5 3.2 12.6 3.2 7.1 0 12.7-2.7 5.7-2.9 9.7-7.6 3.9-4.9 6-11.1 2.2-6.2 2.2-12.8z"/>
</svg>